<?xml version="1.0" standalone="no"?>
<!DOCTYPE svg PUBLIC "-//W3C//DTD SVG 20010904//EN"
 "http://www.w3.org/TR/2001/REC-SVG-20010904/DTD/svg10.dtd">
<svg version="1.0" xmlns="http://www.w3.org/2000/svg"
 width="256.000000pt" height="256.000000pt" viewBox="0 0 256.000000 256.000000"
 preserveAspectRatio="xMidYMid meet">

<g transform="translate(0.000000,256.000000) scale(0.100000,-0.100000)"
fill="#000000" stroke="none">
<path d="M0 1280 l0 -1280 1280 0 1280 0 0 1280 0 1280 -1280 0 -1280 0 0
-1280z m1730 990 c0 -6 -7 -13 -15 -16 -12 -5 -12 -9 3 -30 9 -13 24 -24 32
-24 13 0 13 -1 0 -10 -22 -14 -30 -12 -30 9 0 10 -7 21 -15 25 -8 3 -15 15
-15 26 0 12 -7 20 -17 20 -15 0 -18 -9 -18 -45 0 -29 4 -45 13 -45 14 0 16
-39 2 -74 -13 -36 -36 -32 -58 10 l-19 37 -16 -42 c-9 -22 -19 -41 -23 -41
-16 0 -33 34 -59 113 l-27 87 -258 0 c-197 0 -260 -3 -263 -12 -3 -8 -6 -6 -6
5 -1 16 24 17 394 17 265 0 395 -3 395 -10z m-1136 -54 c28 -12 79 -32 113
-42 35 -10 63 -22 63 -26 0 -12 -119 28 -188 64 -19 9 -39 15 -46 12 -24 -9
-76 -327 -55 -339 3 -3 4 -15 2 -27 -2 -13 1 -37 8 -53 7 -17 13 -33 14 -37 2
-5 3 -9 4 -10 2 -2 4 -13 7 -26 4 -23 92 -132 106 -132 4 0 12 -10 19 -22 10
-19 9 -20 -7 -14 -45 17 -113 72 -109 87 3 8 -2 24 -10 35 -14 18 -15 18 -45
-13 -33 -35 -37 -45 -17 -42 19 3 77 -22 77 -33 0 -5 -12 -8 -27 -7 -43 3
-126 -12 -151 -28 -66 -41 -63 -15 -60 -421 l3 -367 23 39 c26 44 38 44 21 0
-18 -46 -49 -162 -49 -181 0 -10 13 7 28 37 37 74 66 120 73 120 4 0 9 -9 12
-19 3 -13 -7 -36 -25 -61 -35 -47 -33 -62 3 -27 13 12 40 35 61 50 30 22 37
24 42 11 11 -28 7 -39 -34 -93 -63 -84 -47 -90 31 -12 39 40 74 70 76 67 3 -3
-5 -21 -16 -40 -26 -41 -43 -96 -31 -96 4 0 10 7 13 15 8 18 85 70 94 61 3 -3
-10 -30 -30 -59 -20 -29 -41 -67 -47 -84 -6 -16 -22 -35 -35 -41 -14 -7 -25
-20 -25 -31 0 -22 26 -31 88 -31 23 0 42 -3 42 -6 0 -16 -23 -44 -35 -44 -8 0
-15 -5 -15 -11 0 -6 8 -8 19 -4 12 4 21 0 25 -11 4 -9 5 -18 4 -19 -2 0 -25
-8 -53 -17 l-50 -16 131 -1 132 -1 5 30 c7 32 -12 101 -28 107 -5 1 -18 -11
-27 -27 -9 -17 -21 -30 -27 -30 -16 0 0 39 31 72 28 30 32 52 4 29 -14 -12
-145 -32 -158 -24 -4 2 20 25 54 51 34 26 64 54 67 62 2 9 -10 4 -32 -13 -44
-33 -50 -34 -36 -4 15 34 98 84 185 113 42 13 78 23 80 21 5 -4 -54 -127 -60
-127 -3 0 -3 7 0 15 4 8 3 15 -2 15 -11 0 -54 -41 -54 -52 0 -21 36 -2 101 54
64 55 71 59 66 35 -4 -15 -10 -39 -13 -55 l-7 -27 27 24 c14 14 28 23 30 20 2
-2 -2 -26 -9 -54 -7 -27 -11 -52 -9 -54 2 -3 15 6 29 19 31 29 32 17 2 -35
-16 -29 -31 -41 -55 -46 -37 -7 -64 -27 -56 -40 3 -5 18 -2 35 6 16 9 35 15
42 13 6 -1 23 4 36 11 21 12 26 11 40 -7 16 -21 80 -49 134 -59 35 -7 35 -19
0 -31 l-28 -10 32 -1 c36 -1 48 -11 85 -75 23 -38 32 -46 58 -46 25 0 33 7 51
43 42 84 -2 77 496 77 l444 0 -5 458 c-4 473 -5 494 -18 486 -4 -3 -8 -1 -8 5
0 5 -10 13 -22 17 -20 6 -19 8 18 39 l39 33 -25 10 c-14 6 -38 15 -54 19 l-29
9 44 14 c55 17 53 15 39 39 -8 15 -20 21 -46 21 l-36 0 26 31 c35 41 33 48
-14 42 -35 -5 -40 -3 -40 14 0 10 -6 25 -12 32 -11 10 -10 15 3 24 18 14 34
67 20 67 -5 0 -8 11 -7 24 0 13 3 22 5 20 10 -10 93 145 85 159 -4 7 -3 9 1 4
14 -12 34 45 23 67 -9 16 -18 18 -64 13 -30 -3 -54 -3 -54 1 0 4 7 39 15 77
17 79 19 115 7 115 -4 0 -13 -35 -19 -78 -12 -79 -68 -217 -98 -242 -13 -11
-13 -7 1 26 l15 39 -27 -35 c-43 -55 -164 -170 -179 -170 -7 0 -23 8 -36 19
l-23 18 22 12 c29 15 28 25 -4 40 -25 11 -25 13 -10 30 12 13 14 25 8 41 -7
20 -10 21 -15 7 -4 -10 -17 -17 -33 -17 -19 0 -25 4 -20 15 6 17 -14 23 -84
27 l-45 3 64 38 c61 36 182 77 227 77 12 0 54 13 93 29 80 32 75 35 84 -44 3
-29 3 -28 16 13 10 37 10 47 -3 67 -16 24 -23 24 -105 -1 -20 -6 -22 -4 -17
14 7 21 6 21 -29 6 -45 -18 -54 -13 -25 16 13 13 31 20 48 19 15 -2 32 -1 37
3 6 3 32 9 59 13 60 8 76 14 76 27 0 6 -16 8 -35 6 -52 -6 -28 9 28 16 l47 7
0 -38 c0 -43 -15 -139 -26 -166 -6 -17 -3 -18 40 -12 53 8 86 -11 86 -50 0
-12 -27 -70 -60 -130 -45 -81 -58 -111 -50 -121 13 -15 -13 -74 -32 -74 -9 0
-9 -3 0 -12 7 -7 12 -20 12 -30 0 -16 6 -17 40 -12 35 6 40 4 40 -12 0 -11 -7
-29 -15 -41 -14 -20 -13 -21 25 -27 l40 -6 0 -580 0 -580 -448 0 -447 0 -20
-37 c-29 -55 -64 -93 -85 -93 -26 0 -57 29 -84 80 l-24 45 -461 3 -461 2 0
630 c0 595 1 631 18 648 34 34 66 52 94 52 15 0 29 4 32 8 2 4 -22 55 -55 112
-32 57 -59 107 -59 111 0 4 -7 9 -15 13 -19 7 -19 64 0 90 12 16 23 17 93 11
l79 -7 7 79 c9 115 42 233 64 233 3 0 28 -11 56 -24z m1196 -81 c8 -22 12 -22
127 -19 l118 3 -125 -9 c-89 -6 -127 -6 -131 2 -4 7 -15 13 -25 14 -22 3 -38
20 -30 32 10 17 57 0 66 -23z m-985 5 c3 -5 2 -10 -4 -10 -5 0 -13 5 -16 10
-3 6 -2 10 4 10 5 0 13 -4 16 -10z m191 -48 c19 -12 40 -33 46 -47 10 -23 11
-23 44 -7 19 8 34 19 34 24 0 4 9 3 20 -4 26 -17 25 -25 -5 -32 -13 -3 -40
-20 -59 -36 -41 -36 -50 -38 -42 -6 3 14 1 28 -5 32 -8 4 -7 9 2 15 11 7 11 9
-2 9 -8 0 -26 11 -39 25 -13 14 -44 31 -67 37 -24 6 -46 15 -50 21 -4 7 0 8
11 4 10 -4 29 -10 43 -13 23 -6 25 -4 19 17 -6 22 -5 22 4 4 6 -11 27 -30 46
-43z m-151 38 c3 -5 2 -10 -4 -10 -5 0 -13 5 -16 10 -3 6 -2 10 4 10 5 0 13
-4 16 -10z m1245 -4 c0 -2 -11 -6 -25 -8 -13 -3 -22 -1 -19 3 5 9 44 13 44 5z
m-1374 -47 c104 -39 218 -137 230 -198 7 -32 6 -33 -15 -22 -12 7 -26 9 -31 6
-5 -3 -25 11 -45 32 l-37 38 5 -30 c3 -16 9 -38 12 -47 4 -11 2 -18 -5 -18
-16 0 -119 90 -136 120 l-15 25 6 -30 6 -30 -22 33 c-40 62 -44 31 -6 -46 8
-15 17 -47 21 -72 l7 -44 -36 39 c-20 22 -33 33 -29 25 6 -12 4 -12 -10 1 -19
17 -35 111 -36 197 l0 54 43 -7 c23 -4 65 -16 93 -26z m1483 -196 c0 -12 -2
-13 -6 -5 -6 15 -39 -18 -49 -50 -3 -11 -8 -17 -11 -15 -6 7 26 70 41 79 18
12 26 9 25 -9z m-711 -99 c14 -3 22 -12 22 -25 0 -16 4 -19 18 -14 9 4 26 10
37 13 19 5 19 5 2 -15 -18 -21 -18 -21 35 -32 88 -19 147 -42 162 -62 7 -11
27 -24 42 -28 41 -11 44 -40 5 -47 -48 -10 -46 -21 5 -29 25 -3 48 -13 51 -21
6 -16 62 -19 111 -5 19 6 30 6 27 1 -3 -5 7 -12 22 -16 15 -3 33 -7 38 -8 6
-2 -4 -10 -22 -19 -44 -23 -69 -67 -37 -67 9 0 12 -5 8 -11 -7 -12 -6 -12 39
10 15 8 30 11 33 8 4 -3 -8 -31 -25 -62 -17 -31 -29 -60 -26 -65 4 -6 0 -11
-7 -11 -7 -1 4 -5 25 -8 l38 -6 -47 -53 c-32 -36 -43 -56 -35 -61 18 -11 -29
-47 -66 -50 -17 -1 -34 2 -38 8 -3 6 -2 11 3 11 10 0 55 41 50 46 -2 2 -25 -3
-51 -11 -29 -9 -56 -11 -70 -6 -20 8 -20 9 13 26 65 32 108 85 54 64 -37 -13
-42 -4 -14 26 13 14 24 39 26 60 1 21 10 42 21 50 10 7 15 17 10 21 -4 4 -21
-3 -38 -15 -24 -18 -43 -22 -97 -22 -44 0 -72 -5 -83 -15 -8 -7 -44 -16 -78
-19 -63 -4 -90 -16 -175 -77 -21 -15 -43 -25 -48 -22 -10 7 43 51 122 102 30
20 88 60 129 89 41 29 81 53 90 54 12 0 11 3 -4 9 -19 8 -30 7 -106 -5 -20 -3
-78 -32 -129 -65 -52 -33 -97 -60 -102 -60 -19 0 -5 24 41 70 47 47 53 68 16
54 -10 -4 -22 1 -32 16 -15 22 -15 22 -34 -21 -14 -31 -16 -44 -8 -50 9 -5 6
-20 -10 -53 -24 -49 -47 -64 -30 -20 12 33 6 40 -15 18 -22 -22 -30 -13 -16
18 10 20 7 34 -18 84 -23 46 -31 78 -36 146 -3 48 -2 89 3 92 10 7 21 -17 21
-45 0 -11 5 -17 10 -14 6 3 10 22 10 41 0 37 24 94 40 94 6 0 10 -4 10 -9 0
-6 11 -4 25 3 27 14 49 17 83 10z m-808 -56 c0 -14 -19 1 -31 25 -12 22 -12
22 10 3 11 -11 21 -23 21 -28z m1195 -176 c-3 -3 -11 0 -18 7 -9 10 -8 11 6 5
10 -3 15 -9 12 -12z m155 8 c-20 -13 -43 -13 -35 0 3 6 16 10 28 10 18 0 19
-2 7 -10z m-1313 -356 c-3 -3 -12 -4 -19 -1 -8 3 -5 6 6 6 11 1 17 -2 13 -5z
m1553 -14 c8 -5 12 -11 10 -14 -3 -2 -14 2 -24 10 -22 15 -10 19 14 4z m-680
-27 c0 -45 -14 -65 -62 -89 -28 -14 -51 -24 -53 -22 -2 2 0 21 4 43 5 33 13
43 46 62 48 27 65 29 65 6z m-792 -3 c7 0 10 -5 6 -12 -4 -6 -3 -8 3 -5 6 4
29 -11 52 -33 34 -33 49 -40 81 -40 21 0 45 -6 52 -14 8 -7 27 -20 44 -29 46
-24 64 -50 75 -113 8 -48 7 -66 -6 -97 -18 -44 -30 -42 -39 7 -7 39 -41 86
-61 86 -21 0 -34 -31 -28 -65 l6 -30 -21 25 c-18 21 -21 22 -22 7 0 -17 -2
-17 -28 1 -24 18 -197 95 -244 109 -26 8 -22 -14 8 -44 l26 -26 -29 7 c-37 9
-73 33 -73 48 0 7 -19 29 -42 50 l-43 37 31 1 c27 0 95 39 70 40 -5 0 -3 7 4
15 11 13 8 13 -30 0 -24 -8 -46 -13 -49 -9 -9 9 48 54 70 54 27 0 24 20 -3 21
-23 1 -23 1 1 8 13 3 58 5 100 4 42 -1 82 -3 89 -3z m1431 -35 c6 3 16 3 22 0
15 -10 -19 -45 -43 -45 -12 0 -18 -7 -18 -24 0 -14 -5 -28 -12 -32 -6 -4 -8
-3 -4 4 3 6 2 13 -4 17 -5 3 -10 -1 -10 -9 0 -8 -3 -17 -7 -19 -5 -3 -7 8 -7
24 2 43 3 45 14 29 7 -11 8 -6 4 18 -4 21 -3 32 5 32 6 0 11 -7 11 -15 0 -16
16 -20 24 -6 3 4 -3 16 -14 26 -11 10 -20 23 -20 28 0 6 11 0 24 -12 14 -13
29 -20 35 -16z m-769 -25 c0 -5 -2 -10 -4 -10 -3 0 -8 5 -11 10 -3 6 -1 10 4
10 6 0 11 -4 11 -10z m-408 -22 c-6 -6 -16 -7 -22 -3 -9 6 -9 9 1 16 17 10 34
0 21 -13z m368 -2 c0 -3 -4 -8 -10 -11 -5 -3 -10 -1 -10 4 0 6 5 11 10 11 6 0
10 -2 10 -4z m291 -13 c26 0 59 -8 75 -17 l29 -15 -28 -1 c-25 0 -26 -2 -17
-20 6 -11 22 -23 35 -26 41 -10 29 -27 -15 -21 -22 3 -40 2 -40 -2 0 -12 73
-31 115 -31 53 0 39 -9 -40 -25 -38 -8 -70 -17 -73 -20 -3 -3 10 -22 29 -42
23 -25 28 -33 14 -28 -11 5 -47 10 -80 11 l-60 2 24 -19 c13 -10 29 -19 37
-19 7 0 16 -4 19 -10 3 -5 -2 -9 -12 -8 -55 4 -66 -13 -19 -33 14 -6 0 -7 -44
-4 -60 5 -154 -9 -205 -30 -17 -8 -16 -3 8 28 21 28 24 37 13 37 -22 0 -20 22
4 53 21 27 26 52 11 61 -14 9 -60 -33 -80 -73 -9 -20 -23 -35 -29 -33 -9 1
-10 -12 -6 -51 5 -41 3 -55 -10 -66 -9 -7 -13 -17 -10 -22 8 -13 -46 -31 -72
-25 -14 4 -24 16 -27 33 -4 22 3 36 34 70 21 23 39 47 39 53 0 5 9 19 21 31
14 14 18 26 13 37 -13 28 -7 88 11 116 16 24 16 26 1 26 -15 0 -15 2 1 25 22
29 69 34 89 8 12 -17 18 -16 86 19 80 41 100 48 108 39 3 -3 26 -7 51 -8z
m-566 -323 c3 -5 13 -10 21 -10 31 0 70 -69 47 -83 -5 -3 -25 2 -45 11 -38 16
-66 60 -53 81 8 14 22 14 30 1z m242 -162 c-3 -8 -6 -5 -6 6 -1 11 2 17 5 13
3 -3 4 -12 1 -19z m-89 -41 c18 -12 -3 -46 -36 -58 -20 -8 -35 -7 -59 5 -37
18 -47 52 -13 43 12 -3 32 1 46 8 27 14 41 14 62 2z m72 -31 c0 -19 -10 -49
-24 -69 -13 -19 -27 -45 -31 -57 -8 -24 -60 -50 -101 -50 -30 0 -94 28 -94 41
0 5 9 9 21 9 26 0 20 24 -7 28 -11 2 -28 16 -38 32 -19 33 -8 42 11 11 7 -12
34 -24 67 -32 48 -10 61 -10 101 5 51 20 75 48 75 88 0 16 5 28 10 28 6 0 10
-15 10 -34z m641 -23 c13 -16 12 -17 -3 -4 -17 13 -22 21 -14 21 2 0 10 -8 17
-17z m-814 -49 c-3 -3 -12 -4 -19 -1 -8 3 -5 6 6 6 11 1 17 -2 13 -5z m-544
-71 c-8 -23 -33 -60 -33 -50 0 11 29 67 35 67 2 0 2 -8 -2 -17z m87 -19 c-18
-21 -24 -10 -9 18 8 14 14 18 17 10 2 -7 -2 -19 -8 -28z"/>
<path d="M1978 1914 c-30 -16 -82 -74 -73 -82 2 -3 13 2 23 11 10 10 25 17 33
17 9 0 25 13 37 30 33 44 29 49 -20 24z"/>
<path d="M751 581 c-17 -16 -31 -38 -31 -50 0 -42 21 -23 74 67 13 22 -11 13
-43 -17z"/>
<path d="M870 474 c-13 -32 -13 -81 -1 -88 9 -6 41 74 41 101 0 23 -30 14 -40
-13z"/>
<path d="M935 285 c-40 -13 -39 -13 47 -14 88 -1 124 11 67 23 -43 8 -68 7
-114 -9z"/>
<path d="M1000 2065 c7 -8 17 -15 22 -15 6 0 5 7 -2 15 -7 8 -17 15 -22 15 -6
0 -5 -7 2 -15z"/>
<path d="M600 1996 c0 -9 5 -16 10 -16 6 0 10 4 10 9 0 6 -4 13 -10 16 -5 3
-10 -1 -10 -9z"/>
<path d="M1855 1440 c-25 -10 -60 -48 -52 -56 11 -12 66 17 73 38 7 25 4 28
-21 18z"/>
<path d="M638 1153 c7 -3 16 -2 19 1 4 3 -2 6 -13 5 -11 0 -14 -3 -6 -6z"/>
<path d="M990 942 c0 -5 11 -12 25 -15 16 -3 24 0 22 7 -4 14 -47 21 -47 8z"/>
</g>
</svg>
